<?xml version="1.0" standalone="no"?>
<!DOCTYPE svg PUBLIC "-//W3C//DTD SVG 20010904//EN"
 "http://www.w3.org/TR/2001/REC-SVG-20010904/DTD/svg10.dtd">
<svg version="1.0" xmlns="http://www.w3.org/2000/svg"
 width="2000.000000pt" height="2000.000000pt" viewBox="0 0 2000.000000 2000.000000"
 preserveAspectRatio="xMidYMid meet">

<g transform="translate(0.000000,2000.000000) scale(0.100000,-0.100000)"
fill="#000000" stroke="none">
<path d="M5916 16170 c-2188 -1012 -3982 -1840 -3987 -1840 -5 0 -9 -1886 -9
-4373 l0 -4374 3983 -1981 c2191 -1090 3989 -1982 3996 -1982 7 0 1805 892
3997 1982 l3984 1982 -2 4370 -3 4369 -3985 1843 c-2192 1014 -3987 1843
-3990 1843 -3 0 -1795 -827 -3984 -1839z m-477 -4504 c163 -79 402 -196 531
-259 129 -63 622 -302 1095 -532 473 -229 863 -420 868 -424 4 -4 6 -591 5
-1304 l-3 -1296 -310 150 c-170 83 -350 170 -400 194 -49 24 -234 113 -410
199 l-320 155 0 648 0 647 -450 219 c-247 120 -510 247 -582 282 l-133 64 0
-2143 0 -2143 148 -71 c81 -39 342 -165 580 -281 238 -116 433 -211 435 -211
1 0 3 185 4 412 2 226 5 413 7 415 2 2 237 -109 522 -248 286 -138 608 -294
717 -347 l197 -95 0 -488 0 -487 -472 -243 c-260 -133 -477 -242 -483 -242 -5
0 -662 318 -1460 705 l-1450 705 -3 2844 c-1 1714 2 2847 7 2852 7 7 1047 465
1060 467 1 0 136 -65 300 -144z m9577 -62 c269 -113 495 -208 502 -211 9 -4
12 -185 12 -858 l0 -854 -108 -143 c-132 -174 -160 -214 -144 -204 43 27 -33
-109 -128 -228 -70 -87 -116 -117 -85 -54 l16 33 -28 -34 c-15 -19 -99 -127
-186 -240 -132 -173 -154 -207 -140 -213 10 -4 243 -55 518 -113 275 -58 510
-109 523 -112 l22 -5 -2 -1296 -3 -1295 -1125 -574 c-619 -315 -1303 -664
-1520 -774 l-395 -201 -478 233 -477 234 2 2863 3 2864 1360 694 c748 381
1363 693 1366 694 4 0 227 -93 495 -206z"/>
<path d="M13770 10120 l-525 -269 -3 -716 -2 -716 367 187 c203 102 441 225
531 271 l162 84 0 715 c0 393 -1 714 -2 713 -2 0 -239 -122 -528 -269z"/>
<path d="M13883 7462 l-642 -327 -1 -782 c0 -431 2 -783 5 -783 3 0 294 147
645 326 l640 326 0 784 c0 431 -1 784 -2 783 -2 0 -292 -147 -645 -327z"/>
</g>
</svg>
