<svg id="Grupo_141" data-name="Grupo 141" xmlns="http://www.w3.org/2000/svg" xmlns:xlink="http://www.w3.org/1999/xlink" width="16.919" height="13.402" viewBox="0 0 16.919 13.402">
  <defs>
    <clipPath id="clip-path">
      <rect id="Retângulo_68" data-name="Retângulo 68" width="16.919" height="13.402" fill="#e4e3e9"/>
    </clipPath>
  </defs>
  <g id="Grupo_140" data-name="Grupo 140" transform="translate(0 0)" clip-path="url(#clip-path)">
    <path id="Caminho_117" data-name="Caminho 117" d="M11.443,4.288v7.258a3.886,3.886,0,0,0,0-7.258" transform="translate(-3.278 -1.228)" fill="#e4e3e9"/>
    <path id="Caminho_118" data-name="Caminho 118" d="M4.044,7.917a3.892,3.892,0,0,0,2.5,3.628V4.288a3.9,3.9,0,0,0-2.5,3.629" transform="translate(-1.158 -1.228)" fill="#e4e3e9"/>
    <path id="Caminho_119" data-name="Caminho 119" d="M9.912,0H6.759A6.611,6.611,0,0,0,0,6.76,6.714,6.714,0,0,0,6.759,13.4H9.912A6.964,6.964,0,0,0,16.919,6.76,6.845,6.845,0,0,0,9.912,0M6.774,12.824A6.135,6.135,0,1,1,12.908,6.69a6.134,6.134,0,0,1-6.135,6.134" transform="translate(0 0)" fill="#e4e3e9"/>
  </g>
</svg>
