<svg id="Grupo_137" data-name="Grupo 137" xmlns="http://www.w3.org/2000/svg" xmlns:xlink="http://www.w3.org/1999/xlink" width="31.436" height="15.847" viewBox="0 0 31.436 15.847">
  <defs>
    <clipPath id="clip-path">
      <rect id="Retângulo_66" data-name="Retângulo 66" width="31.436" height="15.847" fill="#e4e3e9"/>
    </clipPath>
  </defs>
  <g id="Grupo_136" data-name="Grupo 136" transform="translate(0 0)" clip-path="url(#clip-path)">
    <path id="Caminho_106" data-name="Caminho 106" d="M6.535,2.091a6.537,6.537,0,0,1,6.354,5L10.255,8.242V8.237L7.56,9.422,1.1,12.247A6.534,6.534,0,0,1,6.535,2.091M9.341,6.154,2.812,8.968Q2.8,8.8,2.8,8.626A3.739,3.739,0,0,1,9.341,6.154" transform="translate(0 0.676)" fill="#e4e3e9"/>
    <path id="Caminho_107" data-name="Caminho 107" d="M10.382,11.05a6.48,6.48,0,0,1-8.155.787L3.764,9.5A3.819,3.819,0,0,0,8.427,9.05Z" transform="translate(0.72 2.927)" fill="#e4e3e9"/>
    <path id="Caminho_108" data-name="Caminho 108" d="M10.4,12.358,10.386,0h2.343V12.025a.246.246,0,0,0,.165.275l2.037.793-.917,2.386-2.386-1.01c-.905-.382-1.223-.937-1.224-2.111" transform="translate(3.359 0)" fill="#e4e3e9"/>
    <path id="Caminho_109" data-name="Caminho 109" d="M18.109,11.161a3.728,3.728,0,0,1-.281-5.65L16.317,3.06a6.572,6.572,0,0,0,.364,10.581Z" transform="translate(4.47 0.99)" fill="#e4e3e9"/>
    <path id="Caminho_110" data-name="Caminho 110" d="M18.132,5.052a3.731,3.731,0,0,1,4.753,2.2l2.9-.242a6.577,6.577,0,0,0-8.861-4.537Z" transform="translate(5.473 0.643)" fill="#e4e3e9"/>
    <path id="Caminho_111" data-name="Caminho 111" d="M23.014,7.092a3.729,3.729,0,0,1-4.633,3.437l-1.137,2.632a6.576,6.576,0,0,0,8.614-5.979Z" transform="translate(5.578 2.294)" fill="#e4e3e9"/>
  </g>
</svg>
