<svg id="Grupo_139" data-name="Grupo 139" xmlns="http://www.w3.org/2000/svg" xmlns:xlink="http://www.w3.org/1999/xlink" width="30.113" height="13.108" viewBox="0 0 30.113 13.108">
  <defs>
    <clipPath id="clip-path">
      <rect id="Retângulo_67" data-name="Retângulo 67" width="30.113" height="13.108" fill="#e4e3e9"/>
    </clipPath>
  </defs>
  <g id="Grupo_138" data-name="Grupo 138" transform="translate(0 0)" clip-path="url(#clip-path)">
    <path id="Caminho_112" data-name="Caminho 112" d="M33.309,14.9a.908.908,0,0,0-.868.761h1.538c.139-.588-.2-.779-.67-.761" transform="translate(-20.247 -9.301)" fill="#e4e3e9"/>
    <path id="Caminho_113" data-name="Caminho 113" d="M23.741,15.283c-.05.25-.087.522-.137.807a3.092,3.092,0,0,0-.123.837c.068.624.929.63,1.279.259a2.321,2.321,0,0,0,.441-1.675c-.1-.7-1.116-.65-1.461-.229" transform="translate(-14.652 -9.345)" fill="#e4e3e9"/>
    <path id="Caminho_114" data-name="Caminho 114" d="M8.266,0H5.145C3.767.065,2.639.621,2.314,1.766c-.17.6-.263,1.254-.4,1.873C1.243,6.787.645,10.022,0,13.108H24.3c1.878,0,3.168-.4,3.517-1.888.162-.693.317-1.477.472-2.238.6-2.967,1.208-5.933,1.827-8.982Zm-.7,4.08a.369.369,0,0,1,.259-.137.363.363,0,0,1,.3.045c.192.171.024.58-.107.67-.083.057-.362.123-.487,0s-.052-.466.03-.579M5.389,8.434c.117-.745.27-1.455.4-2.192a18.244,18.244,0,0,0-2.01-.015c-.154.709-.263,1.462-.38,2.208H2.649c.292-1.454.53-2.961.792-4.446h.731c-.123.583-.211,1.2-.335,1.781.654.049,1.347.023,2.025.015.106-.595.211-1.19.3-1.8h.761c-.3,1.446-.552,2.939-.792,4.446Zm1.4,0c.209-1.015.4-2.042.548-3.121,0-.021,0-.043.015-.045h.655c-.226,1.018-.406,2.08-.563,3.166Zm3.471-.091c-.412.223-1.388.333-1.538-.244-.132.548-.194,1.166-.289,1.751H7.779c.294-1.5.572-3.021.807-4.582h.563c0,.1-.041.172-.045.274v0a1.727,1.727,0,0,1,1.522-.277c1.14.428.485,2.615-.365,3.075m4-1.614c-.707-.018-1.441-.023-2.147,0-.109.468-.108,1.005.229,1.218a2.088,2.088,0,0,0,1.629-.107c-.029.174-.074.333-.091.518-1.051.256-2.364.294-2.482-.761a2.645,2.645,0,0,1,.548-1.918,1.709,1.709,0,0,1,1.157-.472c.539-.042,1.07.07,1.218.5a2.252,2.252,0,0,1-.061,1.02m1.172-.335a12.423,12.423,0,0,0-.335,2.04h-.655c.2-1.04.407-2.07.548-3.166h.578c-.039.174-.059.368-.106.533a1,1,0,0,1,1.248-.533c-.018.165-.068.3-.076.472a.913.913,0,0,0-1.2.655m3.121,1.949c-.855.3-1.911.253-2.147-.518a2.6,2.6,0,0,1,.518-2.162,2.474,2.474,0,0,1,2.162-.411c-.023.175-.059.336-.076.518a1.605,1.605,0,0,0-1.553.091,2.129,2.129,0,0,0-.441,1.218,1.589,1.589,0,0,0,.061.609c.207.536,1.1.41,1.568.168-.033.159-.054.332-.091.487m3.227-1.37a8.73,8.73,0,0,0-.168,1.461h-.563a1.992,1.992,0,0,1,.045-.487,1.456,1.456,0,0,1-1.69.472.962.962,0,0,1-.35-1.172c.233-.775,1.12-.955,2.208-.852a.9.9,0,0,0,.076-.487c-.116-.516-1.319-.219-1.7-.122.04-.173.089-.337.122-.518.775-.023,2.159-.318,2.208.518a5.788,5.788,0,0,1-.183,1.187m1.187.319a7.173,7.173,0,0,0-.152,1.142h-.67q.329-1.536.563-3.166h.578c-.05.153-.053.353-.107.5a1,1,0,0,1,1.248-.487c-.043.139-.057.308-.091.457-1.025-.29-1.23.674-1.37,1.553m3.821,1.142H26.2a3.445,3.445,0,0,1,.061-.472c-.012-.04-.079.1-.122.152a1.142,1.142,0,0,1-.228.229A1.48,1.48,0,0,1,24.3,8.205a1.144,1.144,0,0,1-.229-.761c-.018-1.458.967-2.639,2.573-2.131.1-.451.172-.924.228-1.416h.655a41.48,41.48,0,0,0-.731,4.537" transform="translate(0 0)" fill="#e4e3e9"/>
    <path id="Caminho_115" data-name="Caminho 115" d="M66.849,14.929c-.706.079-1.053.959-1.035,1.751.01.452.229.725.67.715,1.031-.022.951-1.455,1.172-2.344a1.714,1.714,0,0,0-.807-.122" transform="translate(-41.075 -9.312)" fill="#e4e3e9"/>
    <path id="Caminho_116" data-name="Caminho 116" d="M52.235,18.639c-.1.789.85.7,1.187.365a1.95,1.95,0,0,0,.381-1.066c-.774-.095-1.488.045-1.568.7" transform="translate(-32.597 -11.179)" fill="#e4e3e9"/>
  </g>
</svg>
