<svg id="Grupo_142" data-name="Grupo 142" xmlns="http://www.w3.org/2000/svg" width="21.715" height="13.402" viewBox="0 0 21.715 13.402">
  <path id="Caminho_120" data-name="Caminho 120" d="M8.313,6.7a6.688,6.688,0,0,1,2.544-5.254,6.7,6.7,0,1,0,0,10.508A6.688,6.688,0,0,1,8.313,6.7" transform="translate(0 0)" fill="#e4e3e9"/>
  <path id="Caminho_121" data-name="Caminho 121" d="M20.747,8.865a6.688,6.688,0,0,0,2.544,5.254,6.7,6.7,0,0,0,0-10.508,6.688,6.688,0,0,0-2.544,5.254" transform="translate(-12.434 -2.164)" fill="#dad8e2"/>
  <path id="Caminho_122" data-name="Caminho 122" d="M31.254,0A6.671,6.671,0,0,0,27.1,1.447a6.7,6.7,0,0,1,0,10.508A6.7,6.7,0,1,0,31.254,0" transform="translate(-16.239 0)" fill="#e4e3e9"/>
</svg>
