<svg id="Grupo_133" data-name="Grupo 133" xmlns="http://www.w3.org/2000/svg" xmlns:xlink="http://www.w3.org/1999/xlink" width="43.712" height="13.402" viewBox="0 0 43.712 13.402">
  <defs>
    <clipPath id="clip-path">
      <rect id="Retângulo_64" data-name="Retângulo 64" width="43.712" height="13.402" fill="#e4e3e9"/>
    </clipPath>
  </defs>
  <path id="Caminho_97" data-name="Caminho 97" d="M30.371.412,28.159,13.4H31.7L33.911.412Z" transform="translate(-12.759 -0.187)" fill="#e4e3e9"/>
  <g id="Grupo_132" data-name="Grupo 132" transform="translate(0 0)">
    <g id="Grupo_131" data-name="Grupo 131" clip-path="url(#clip-path)">
      <path id="Caminho_98" data-name="Caminho 98" d="M49.3.545A9.14,9.14,0,0,0,46.128,0c-3.5,0-5.96,1.761-5.981,4.285-.02,1.866,1.758,2.907,3.1,3.527,1.378.637,1.841,1.042,1.834,1.611-.009.87-1.1,1.268-2.118,1.268a7.421,7.421,0,0,1-3.331-.681L39.178,9.8l-.5,2.907a11.2,11.2,0,0,0,3.942.693c3.72,0,6.135-1.741,6.163-4.436.014-1.477-.929-2.6-2.971-3.528-1.237-.6-1.994-1-1.987-1.61,0-.54.641-1.117,2.027-1.117a6.528,6.528,0,0,1,2.649.5l.317.15Z" transform="translate(-17.527 0)" fill="#e4e3e9"/>
      <path id="Caminho_99" data-name="Caminho 99" d="M66.537.435H63.8a1.761,1.761,0,0,0-1.853,1.077l-5.255,11.9h3.716s.608-1.6.745-1.951l4.532.006c.106.454.431,1.945.431,1.945H69.4ZM62.173,8.8c.293-.748,1.41-3.63,1.41-3.63-.021.034.29-.751.469-1.239l.24,1.119s.678,3.1.819,3.749Z" transform="translate(-25.689 -0.197)" fill="#e4e3e9"/>
      <path id="Caminho_100" data-name="Caminho 100" d="M15.493.43,12.028,9.284l-.369-1.8a10.131,10.131,0,0,0-4.9-5.446L9.926,13.393l3.744,0L19.242.43Z" transform="translate(-3.062 -0.195)" fill="#e4e3e9"/>
      <path id="Caminho_101" data-name="Caminho 101" d="M5.752.415H.045L0,.685C4.44,1.76,7.378,4.357,8.6,7.478L7.356,1.511a1.481,1.481,0,0,0-1.6-1.1" transform="translate(0 -0.188)" fill="#dad8e2"/>
    </g>
  </g>
</svg>
